<svg width="45" height="45" viewBox="0 0 45 45" fill="none" xmlns="http://www.w3.org/2000/svg">
<path d="M7.5 41.25H37.5C37.9973 41.25 38.4742 41.0525 38.8258 40.7008C39.1775 40.3492 39.375 39.8723 39.375 39.375V24.375H35.625V37.5H9.375V7.5H18.75V3.75H7.5C7.00272 3.75 6.52581 3.94754 6.17417 4.29917C5.82254 4.65081 5.625 5.12772 5.625 5.625V39.375C5.625 39.8723 5.82254 40.3492 6.17417 40.7008C6.52581 41.0525 7.00272 41.25 7.5 41.25Z" fill="#2E3192"/>
<path d="M22.5 22.5C23.5355 22.5 24.375 21.6605 24.375 20.625C24.375 19.5895 23.5355 18.75 22.5 18.75C21.4645 18.75 20.625 19.5895 20.625 20.625C20.625 21.6605 21.4645 22.5 22.5 22.5Z" fill="#2E3192"/>
<path d="M28.125 20.625H31.875C31.875 18.1386 30.8873 15.754 29.1291 13.9959C27.371 12.2377 24.9864 11.25 22.5 11.25V15C23.9918 15 25.4226 15.5926 26.4775 16.6475C27.5324 17.7024 28.125 19.1332 28.125 20.625Z" fill="#2E3192"/>
<path d="M35.625 20.625H39.375C39.375 16.1495 37.5971 11.8572 34.4324 8.69257C31.2677 5.5279 26.9755 3.75 22.5 3.75V7.5C25.981 7.5 29.3194 8.88281 31.7808 11.3442C34.2422 13.8056 35.625 17.144 35.625 20.625ZM18.0937 29.3813C18.0937 29.0447 18.003 28.7144 17.8313 28.425C17.6645 28.1578 17.414 27.9534 17.1188 27.8438C16.6625 27.7104 16.1873 27.6534 15.7125 27.675H13.125V33.75H14.3438V31.2188H14.6062C14.8117 31.1927 15.0196 31.1927 15.225 31.2188C15.3605 31.2809 15.4817 31.3703 15.5813 31.4813C15.8187 31.7672 16.0379 32.0678 16.2375 32.3813L17.1188 33.6937H18.5812L17.85 32.5125C17.6434 32.1601 17.4049 31.8275 17.1375 31.5187C16.9506 31.3124 16.7283 31.1409 16.4812 31.0125C16.9364 30.9773 17.3631 30.7773 17.6813 30.45C17.948 30.1582 18.0953 29.7766 18.0937 29.3813ZM16.7062 30C16.6216 30.1184 16.5043 30.2096 16.3687 30.2625C16.0015 30.3088 15.6298 30.3088 15.2625 30.2625H14.3438V28.725H16.2187C16.3994 28.7467 16.566 28.8333 16.6875 28.9688C16.8061 29.1025 16.8668 29.2778 16.8562 29.4562C16.8734 29.6496 16.8201 29.8427 16.7062 30ZM20.475 31.1625H23.025V30.15H20.475V28.7063H23.4187V27.675H19.2563V33.75H20.475V31.1625ZM24.3938 27.675H25.6125V33.75H24.3938V27.675ZM30.1875 27.7875C29.8063 27.7013 29.4157 27.6635 29.025 27.675H26.775V33.75H29.1C29.461 33.7651 29.8221 33.7207 30.1688 33.6188C30.4925 33.5309 30.789 33.3633 31.0312 33.1313C31.3362 32.8357 31.5619 32.4682 31.6875 32.0625C31.8253 31.6456 31.8887 31.2077 31.875 30.7687C31.8848 30.2857 31.8152 29.8042 31.6687 29.3438C31.5552 28.9717 31.3561 28.6314 31.0875 28.35C30.8423 28.0865 30.5318 27.8925 30.1875 27.7875ZM30.4875 31.875C30.4298 32.0917 30.3204 32.2911 30.1688 32.4562C30.0248 32.5812 29.85 32.6654 29.6625 32.7C29.4195 32.7266 29.1743 32.7266 28.9313 32.7H28.0125V28.7063H28.5562C28.8931 28.6764 29.2319 28.6764 29.5688 28.7063C29.776 28.7537 29.9689 28.8502 30.1312 28.9875C30.2944 29.1576 30.4163 29.3628 30.4875 29.5875C30.5749 29.9367 30.6127 30.2965 30.6 30.6562C30.6179 31.0657 30.5801 31.4757 30.4875 31.875Z" fill="#2E3192"/>
</svg>
