<svg width="45" height="45" viewBox="0 0 45 45" fill="none" xmlns="http://www.w3.org/2000/svg">
<path d="M27.8683 25.125V9.26066C27.8571 7.83561 27.2923 6.47075 26.2933 5.4544C25.7474 4.91334 25.0914 4.49601 24.37 4.23073C23.6486 3.96545 22.8785 3.85842 22.1121 3.91691C20.7246 4.05275 19.4397 4.70785 18.5148 5.75097C17.5899 6.79408 17.0934 8.14816 17.1246 9.54191L17.1433 25.0669C15.7705 26.098 14.7246 27.5036 14.1313 29.1148C13.538 30.7259 13.4225 32.4741 13.7987 34.1494C14.1749 35.8246 15.0269 37.3555 16.2522 38.5582C17.4774 39.761 19.0239 40.5843 20.7058 40.9294C21.293 41.0413 21.8894 41.0978 22.4871 41.0982C24.851 41.0987 27.1186 40.1611 28.7919 38.4913C30.4653 36.8214 31.4076 34.5559 31.4121 32.1919C31.4149 30.819 31.0958 29.4645 30.4803 28.2372C29.8649 27.0099 28.9703 25.944 27.8683 25.125ZM26.9683 37.6125C26.154 38.2792 25.2015 38.7563 24.18 39.0093C23.1584 39.2622 22.0934 39.2847 21.0621 39.075C19.6934 38.8024 18.4387 38.1234 17.4619 37.1266C16.4852 36.1297 15.8318 34.8615 15.5871 33.4875C15.3433 32.199 15.4653 30.8679 15.9392 29.6451C16.4131 28.4223 17.2199 27.3566 18.2683 26.5688C18.4943 26.4017 18.678 26.1842 18.805 25.9335C18.9319 25.6829 18.9986 25.406 18.9996 25.125V9.54191C18.978 8.62562 19.2982 7.7341 19.8978 7.04091C20.4974 6.34772 21.3335 5.90249 22.2433 5.79191C22.3299 5.77634 22.4179 5.77006 22.5058 5.77316C23.4281 5.78195 24.31 6.15221 24.9621 6.80435C25.6143 7.45648 25.9845 8.33844 25.9933 9.26066V25.125C25.9944 25.406 26.061 25.6829 26.188 25.9335C26.3149 26.1842 26.4987 26.4017 26.7246 26.5688C27.5767 27.2065 28.2726 28.0297 28.7595 28.9761C29.2464 29.9225 29.5117 30.9673 29.5352 32.0313C29.5587 33.0954 29.3398 34.1508 28.8951 35.1178C28.4504 36.0847 27.7915 36.9378 26.9683 37.6125Z" fill="#2E3192"/>
<path d="M26.0485 32.1919C26.0485 33.1317 25.6752 34.0331 25.0106 34.6977C24.346 35.3623 23.4446 35.7356 22.5048 35.7356C21.5649 35.7356 20.6635 35.3623 19.9989 34.6977C19.3344 34.0331 18.961 33.1317 18.961 32.1919C18.956 31.4169 19.2096 30.6624 19.6817 30.0477C20.1537 29.433 20.8172 28.9933 21.5673 28.7981V10.125C21.5673 9.87636 21.666 9.6379 21.8418 9.46209C22.0177 9.28627 22.2561 9.1875 22.5048 9.1875C22.7534 9.1875 22.9919 9.28627 23.1677 9.46209C23.3435 9.6379 23.4423 9.87636 23.4423 10.125V28.8C24.1902 28.9983 24.8515 29.4386 25.3229 30.0522C25.7944 30.6657 26.0495 31.4181 26.0485 32.1919Z" fill="#2E3192"/>
</svg>
