<svg width="45" height="45" viewBox="0 0 45 45" fill="none" xmlns="http://www.w3.org/2000/svg">
<path d="M5.9475 39.0525C8.14312 41.25 11.6794 41.25 18.75 41.25C25.8206 41.25 29.3569 41.25 31.5525 39.0525C33.75 36.8569 33.75 33.3206 33.75 26.25C33.749 25.2984 33.5604 24.3562 33.1949 23.4776C32.8294 22.5989 32.2943 21.801 31.62 21.1294L23.8706 13.38C23.1988 12.7061 22.4008 12.1711 21.5222 11.8056C20.6436 11.4402 19.7016 11.2514 18.75 11.25C11.6794 11.25 8.14312 11.25 5.9475 13.4475C3.75 15.6431 3.75 19.1794 3.75 26.25C3.75 33.3206 3.75 36.8569 5.9475 39.0525Z" stroke="#2E3192" stroke-width="3"/>
<path d="M33.7502 33.5606C36.1877 33.3206 37.8283 32.7788 39.0527 31.5544C41.2502 29.355 41.2502 25.8187 41.2502 18.75C41.2492 17.7984 41.0606 16.8562 40.6951 15.9776C40.3296 15.0989 39.7944 14.301 39.1202 13.6294L31.3708 5.88C30.6992 5.20622 29.9016 4.67132 29.0233 4.30585C28.145 3.94038 27.2033 3.7515 26.252 3.75C19.1795 3.75 15.6433 3.75 13.4458 5.9475C12.2233 7.17187 11.6814 8.8125 11.4414 11.25M18.7502 26.25H16.8752C15.107 26.25 14.2239 26.25 13.6745 26.7994C13.1252 27.3488 13.1252 28.2319 13.1252 30V31.875C13.1252 33.6431 13.1252 34.5263 13.6745 35.0756C14.2239 35.625 15.107 35.625 16.8752 35.625H18.7502M18.7502 26.25H20.6252C22.3933 26.25 23.2764 26.25 23.8258 26.7994C24.3752 27.3488 24.3752 28.2319 24.3752 30V30.9375M18.7502 26.25V30.9375M18.7502 35.625H20.6252C22.3933 35.625 23.2764 35.625 23.8258 35.0756C24.3752 34.5263 24.3752 33.6431 24.3752 31.875V30.9375M18.7502 35.625V30.9375M24.3752 30.9375H18.7502" stroke="#2E3192" stroke-width="3"/>
</svg>
