<svg width="45" height="45" viewBox="0 0 45 45" fill="none" xmlns="http://www.w3.org/2000/svg">
<g clip-path="url(#clip0_362_139)">
<path d="M22.5 3.75C24.5456 3.75 26.4694 4.2975 28.125 5.2575C28.3491 5.37472 28.5471 5.53605 28.7072 5.73179C28.8673 5.92752 28.9862 6.15363 29.0566 6.39649C29.1271 6.63936 29.1477 6.89397 29.1172 7.145C29.0867 7.39603 29.0058 7.63831 28.8792 7.85724C28.7527 8.07618 28.5831 8.26725 28.3808 8.41897C28.1785 8.57068 27.9476 8.67991 27.702 8.74007C27.4564 8.80023 27.2011 8.81009 26.9516 8.76905C26.7021 8.72801 26.4634 8.63691 26.25 8.50125C25.1096 7.84284 23.8159 7.49628 22.4991 7.49644C21.1823 7.4966 19.8887 7.84346 18.7485 8.50214C17.6082 9.16082 16.6615 10.1081 16.0035 11.2488C15.3455 12.3894 14.9994 13.6832 15 15L35.625 15.0019C36.6196 15.0019 37.5734 15.397 38.2766 16.1002C38.9799 16.8035 39.375 17.7573 39.375 18.7519V37.5019C39.375 38.4964 38.9799 39.4503 38.2766 40.1535C37.5734 40.8568 36.6196 41.2519 35.625 41.2519H9.375C8.38044 41.2519 7.42661 40.8568 6.72335 40.1535C6.02009 39.4503 5.625 38.4964 5.625 37.5019V18.75C5.625 17.7554 6.02009 16.8016 6.72335 16.0984C7.42661 15.3951 8.38044 15 9.375 15H11.25C11.25 12.0163 12.4353 9.15483 14.545 7.04505C16.6548 4.93526 19.5163 3.75 22.5 3.75ZM35.625 18.75H9.375V37.5H35.625V18.75ZM22.5 22.5C23.2999 22.5003 24.0787 22.7562 24.7227 23.2306C25.3667 23.7049 25.8422 24.3728 26.0797 25.1366C26.3172 25.9003 26.3042 26.7201 26.0428 27.476C25.7813 28.2319 25.2849 28.8844 24.6262 29.3381L24.375 29.4975V31.875C24.3745 32.3529 24.1915 32.8126 23.8634 33.1601C23.5353 33.5076 23.087 33.7167 22.6099 33.7447C22.1328 33.7727 21.663 33.6175 21.2966 33.3108C20.9301 33.004 20.6946 32.5689 20.6381 32.0944L20.625 31.875V29.4975C19.9101 29.0847 19.3515 28.4476 19.0356 27.685C18.7197 26.9223 18.6643 26.0768 18.8779 25.2794C19.0916 24.4821 19.5624 23.7775 20.2172 23.275C20.8721 22.7724 21.6745 22.5 22.5 22.5ZM37.3462 9.41437L39.1575 9.90188C39.6193 10.0464 40.0074 10.364 40.2405 10.788C40.4736 11.2121 40.5337 11.7099 40.4082 12.1773C40.2828 12.6447 39.9815 13.0454 39.5674 13.2958C39.1533 13.5462 38.6584 13.6267 38.1862 13.5206L36.3769 13.0369C35.8986 12.9065 35.4914 12.592 35.2443 12.1621C34.9973 11.7323 34.9306 11.2221 35.0587 10.7432C35.1869 10.2643 35.4995 9.85561 35.9282 9.60659C36.3569 9.35756 36.8667 9.28845 37.3462 9.41437ZM34.9369 3.91875C35.1747 3.9825 35.3977 4.09248 35.5931 4.24242C35.7885 4.39235 35.9524 4.5793 36.0755 4.7926C36.1986 5.00589 36.2784 5.24134 36.3105 5.48551C36.3426 5.72967 36.3263 5.97777 36.2625 6.21563L36.0206 7.11937C35.9579 7.35824 35.8486 7.58236 35.699 7.77886C35.5494 7.97537 35.3625 8.14038 35.1489 8.26443C34.9354 8.38848 34.6994 8.46913 34.4546 8.50173C34.2098 8.53433 33.961 8.51825 33.7224 8.4544C33.4839 8.39056 33.2602 8.28022 33.0644 8.12971C32.8686 7.97921 32.7045 7.7915 32.5814 7.57738C32.4584 7.36325 32.3788 7.12693 32.3474 6.88198C32.3159 6.63702 32.3332 6.38827 32.3981 6.15L32.6419 5.24437C32.7706 4.76439 33.0847 4.35515 33.515 4.10658C33.9453 3.85802 34.4568 3.79046 34.9369 3.91875Z" fill="#2E3192"/>
</g>
<defs>
<clipPath id="clip0_362_139">
<rect width="45" height="45" fill="white"/>
</clipPath>
</defs>
</svg>
