<?xml version="1.0" encoding="UTF-8"?>
<svg width="37px" height="32px" viewBox="0 0 37 32" version="1.1" xmlns="http://www.w3.org/2000/svg" xmlns:xlink="http://www.w3.org/1999/xlink">
    
    <g id="Page-1" stroke="none" stroke-width="1" fill="none" fill-rule="evenodd">
        <g id="messaging-alert-update-" transform="translate(-56.000000, -171.000000)" fill="#D73F26" fill-rule="nonzero">
            <g id="Messaging---updated-Alert-yellow" transform="translate(-10.000000, 0.000000)">
                <g id="icons" transform="translate(65.570715, 161.000000)">
                    <path d="M36.9597179,41.2865774 C36.6624986,41.7535402 36.1340415,42.0239403 35.5788173,41.9931542 L2.00567185,41.9931542 C1.44490956,42.0478243 0.903776995,41.771639 0.621905224,41.2869023 C0.340033452,40.8021655 0.369504856,40.1984436 0.697268542,39.7430843 L17.4821152,10.8386037 C17.7146578,10.3280433 18.2264763,10 18.7905185,10 C19.3545606,10 19.8663791,10.3280433 20.0989218,10.8386037 L36.8837684,39.7396543 C37.1893384,40.2035284 37.2183954,40.7953565 36.9597179,41.2865774 Z M18.0974387,32.3887988 L20.3822257,32.3887988 L20.9534225,19.4117647 L17.5262419,19.4117647 L18.0974387,32.3887988 Z M19.2657957,38.2352941 C19.8023771,38.2352941 20.2480792,38.0440555 20.6029154,37.6615726 C20.9577515,37.2790897 21.1351669,36.8055465 21.1351669,36.2409289 C21.1351669,35.6580978 20.9577515,35.1845546 20.6029154,34.8202852 C20.2480792,34.4560157 19.8023771,34.2738837 19.2657957,34.2738837 C18.7119052,34.2738837 18.2575486,34.4560157 17.9027125,34.8202852 C17.5478764,35.1845546 17.370461,35.6580978 17.370461,36.2409289 C17.370461,36.8055465 17.5478764,37.2790897 17.9027125,37.6615726 C18.2575486,38.0440555 18.7119052,38.2352941 19.2657957,38.2352941 Z" id="alert-icon"></path>
                </g>
            </g>
        </g>
    </g>
</svg>
